<svg width="16" height="16" viewBox="0 0 16 16" fill="none" xmlns="http://www.w3.org/2000/svg">
<path d="M6 11.5V12.1713C6.00003 12.4341 5.9483 12.6942 5.84775 12.937C5.7472 13.1797 5.59981 13.4002 5.414 13.586L5 14H11L10.586 13.586C10.4002 13.4002 10.2528 13.1797 10.1523 12.937C10.0517 12.6942 9.99997 12.4341 10 12.1713V11.5M14 3.5V10C14 10.3978 13.842 10.7794 13.5607 11.0607C13.2794 11.342 12.8978 11.5 12.5 11.5H3.5C3.10218 11.5 2.72064 11.342 2.43934 11.0607C2.15804 10.7794 2 10.3978 2 10V3.5M14 3.5C14 3.10218 13.842 2.72064 13.5607 2.43934C13.2794 2.15804 12.8978 2 12.5 2H3.5C3.10218 2 2.72064 2.15804 2.43934 2.43934C2.15804 2.72064 2 3.10218 2 3.5M14 3.5V8C14 8.39782 13.842 8.77936 13.5607 9.06066C13.2794 9.34196 12.8978 9.5 12.5 9.5H3.5C3.10218 9.5 2.72064 9.34196 2.43934 9.06066C2.15804 8.77936 2 8.39782 2 8V3.5" stroke="black" stroke-linecap="round" stroke-linejoin="round"/>
</svg>
