<svg width="128" height="128" viewBox="0 0 128 128" fill="none" xmlns="http://www.w3.org/2000/svg">
<rect width="128" height="128" rx="25" fill="#0077FF"/>
<path d="M67.4662 87.0392C67.0341 87.4716 66.4762 87.7561 65.8724 87.8519C65.2687 87.9477 64.6501 87.85 64.1053 87.5726C59.0554 84.9693 54.4455 81.5892 50.4441 77.5558C46.4101 73.555 43.0299 68.9451 40.4274 63.8946C40.15 63.3499 40.0522 62.7313 40.1481 62.1275C40.2439 61.5238 40.5284 60.9659 40.9608 60.5338L48.5747 52.9182L26.4618 30.8053C20.2319 47.3868 25.9444 69.4324 42.2568 85.7432C58.5675 102.056 80.6132 107.768 97.1946 101.538L75.0818 79.4252L67.4662 87.0392Z" fill="white"/>
<path d="M103.153 94.4367L83.6592 74.943C83.3904 74.674 83.0712 74.4607 82.7199 74.3152C82.3687 74.1696 81.9921 74.0947 81.6119 74.0947C81.2317 74.0947 80.8552 74.1696 80.5039 74.3152C80.1526 74.4607 79.8335 74.674 79.5646 74.943L76.2151 78.2926L98.8086 100.886C100.1 100.329 101.356 99.6935 102.57 98.983C102.952 98.7591 103.277 98.4507 103.521 98.0815C103.765 97.7122 103.921 97.292 103.978 96.853C104.034 96.414 103.989 95.968 103.846 95.5491C103.703 95.1303 103.466 94.7497 103.153 94.4367Z" fill="white"/>
<path d="M53.0594 48.4362C53.6019 47.8929 53.9065 47.1566 53.9065 46.3889C53.9065 45.6213 53.6019 44.8849 53.0594 44.3417L33.5641 24.8479C33.2511 24.5349 32.8705 24.2979 32.4515 24.155C32.0326 24.0121 31.5864 23.9672 31.1474 24.0237C30.7084 24.0801 30.2881 24.2365 29.919 24.4807C29.5498 24.725 29.2415 25.0506 29.0179 25.4326C28.3071 26.6456 27.6715 27.9012 27.1147 29.1923L49.7083 51.7858L53.0594 48.4362Z" fill="white"/>
<path d="M81.5131 65.2494C85.2235 65.2489 88.8504 64.1482 91.9352 62.0864C95.02 60.0246 97.4242 57.0944 98.8436 53.6662C100.263 50.2381 100.634 46.466 99.9097 42.827C99.1854 39.188 97.3982 35.8455 94.7742 33.2222C92.1502 30.5989 88.8072 28.8126 85.168 28.0892C81.5289 27.3659 77.7569 27.7379 74.3291 29.1582C70.9013 30.5786 67.9717 32.9835 65.9108 36.0689C63.8498 39.1542 62.75 42.7814 62.7505 46.4918C62.7568 51.4656 64.7358 56.2337 68.2532 59.7502C71.7707 63.2667 76.5393 65.2444 81.5131 65.2494ZM71.2561 44.7527C71.5455 44.4634 71.938 44.3009 72.3472 44.3009C72.7564 44.3009 73.1489 44.4634 73.4383 44.7527L77.8312 49.1468L88.0006 38.9774C88.2902 38.6894 88.6822 38.5279 89.0907 38.5285C89.4992 38.5291 89.8908 38.6917 90.1796 38.9807C90.4683 39.2696 90.6307 39.6613 90.6311 40.0698C90.6314 40.4783 90.4698 40.8702 90.1815 41.1597L78.9223 52.419C78.7791 52.5622 78.6091 52.6758 78.422 52.7533C78.2349 52.8308 78.0343 52.8707 77.8318 52.8707C77.6293 52.8707 77.4287 52.8308 77.2416 52.7533C77.0545 52.6758 76.8845 52.5622 76.7413 52.419L71.2561 46.935C70.9668 46.6455 70.8043 46.2531 70.8043 45.8438C70.8043 45.4346 70.9668 45.0422 71.2561 44.7527Z" fill="white"/>
</svg>
