<svg width="468" height="395" viewBox="0 0 468 395" fill="none" xmlns="http://www.w3.org/2000/svg">
<path d="M311.22 5.76998C311.22 5.76998 237.77 -15.86 165.22 27.89C92.67 71.64 55.73 153.21 24 218.67C-7.72999 284.13 9.85001 348.24 64.82 375.17C119.79 402.1 157.59 356.57 234.99 350.63C312.39 344.69 333.13 354.35 397.62 309.03C462.11 263.71 474.38 163.57 424.21 92.39C374.04 21.21 311.22 5.76998 311.22 5.76998Z" fill="#0077FF"/>
<path opacity="0.8" d="M311.22 5.76998C311.22 5.76998 237.77 -15.86 165.22 27.89C92.67 71.64 55.73 153.21 24 218.67C-7.72999 284.13 9.85001 348.24 64.82 375.17C119.79 402.1 157.59 356.57 234.99 350.63C312.39 344.69 333.13 354.35 397.62 309.03C462.11 263.71 474.38 163.57 424.21 92.39C374.04 21.21 311.22 5.76998 311.22 5.76998Z" fill="white"/>
<path d="M53.9301 386.65C53.9301 386.65 29.1601 333.89 34.5401 332.37C39.9201 330.85 51.2001 339.25 51.2001 339.25C51.2001 339.25 18.1001 250.55 26.6701 243.67C35.2401 236.79 51.2401 272 51.2401 272C51.2401 272 34.1501 217.67 36.1601 197C38.1701 176.33 59.8801 196.24 59.8801 196.24C59.8801 196.24 42.4901 122.07 58.6401 118.24C74.7901 114.41 74.2501 203.11 74.2501 203.11C74.2501 203.11 79.5501 139.64 86.0201 157.23C92.49 174.82 78.8901 233.69 78.8901 233.69C78.8901 233.69 87.7601 213.81 92.6901 232.16C97.6201 250.51 82.8901 324.68 82.8901 324.68C82.8901 324.68 95.4101 312.45 96.5801 327.74C97.7501 343.03 70.6601 390.44 70.6601 390.44L55.3301 392L53.9301 386.65Z" fill="#0077FF"/>
<path opacity="0.6" d="M53.9301 386.65C53.9301 386.65 29.1601 333.89 34.5401 332.37C39.9201 330.85 51.2001 339.25 51.2001 339.25C51.2001 339.25 18.1001 250.55 26.6701 243.67C35.2401 236.79 51.2401 272 51.2401 272C51.2401 272 34.1501 217.67 36.1601 197C38.1701 176.33 59.8801 196.24 59.8801 196.24C59.8801 196.24 42.4901 122.07 58.6401 118.24C74.7901 114.41 74.2501 203.11 74.2501 203.11C74.2501 203.11 79.5501 139.64 86.0201 157.23C92.49 174.82 78.8901 233.69 78.8901 233.69C78.8901 233.69 87.7601 213.81 92.6901 232.16C97.6201 250.51 82.8901 324.68 82.8901 324.68C82.8901 324.68 95.4101 312.45 96.5801 327.74C97.7501 343.03 70.6601 390.44 70.6601 390.44L55.3301 392L53.9301 386.65Z" fill="white"/>
<path d="M59.2101 389C59.2101 389 38.5701 352.3 42.3901 345.41C46.2101 338.52 57.6801 354.59 57.6801 354.59C57.6801 354.59 31.6801 289.59 35.5101 283.48C39.3401 277.37 51.5701 304.13 51.5701 304.13C51.5701 304.13 47.0001 214.62 54.6201 217.67C62.2401 220.72 63.0001 263.55 63.0001 263.55C63.0001 263.55 58.4201 161.86 65.3001 164.92C72.1801 167.98 71.4201 281.14 71.4201 281.14C71.4201 281.14 85.1801 237.55 87.4201 257.43C89.6601 277.31 69.8401 330.84 69.8401 330.84C69.8401 330.84 89.0001 288.78 91.3301 311C93.6601 333.22 76.0001 374.42 76.0001 374.42C76.0001 374.42 82.8801 357.6 82.8801 366.77C82.8801 375.94 77.5301 387.42 77.5301 387.42" stroke="#263238" stroke-linecap="round" stroke-linejoin="round"/>
<path d="M33.43 345.46L20.26 388.86H55.93L69.5 345.69L33.43 345.46Z" fill="#263238" stroke="#263238" stroke-linecap="round" stroke-linejoin="round"/>
<path d="M116.6 388.79H42.2699L33.4299 345.46H107.76L116.6 388.79Z" fill="white" stroke="#263238" stroke-linecap="round" stroke-linejoin="round"/>
<path d="M108.94 381.46H46.9401L42.3101 358.79H104.31L108.94 381.46Z" stroke="#263238" stroke-linecap="round" stroke-linejoin="round"/>
<path d="M47.6399 358.88L52.2299 381.36" stroke="#263238" stroke-linecap="round" stroke-linejoin="round"/>
<path d="M53.3301 358.88L57.9201 381.36" stroke="#263238" stroke-linecap="round" stroke-linejoin="round"/>
<path d="M59.02 358.88L63.61 381.36" stroke="#263238" stroke-linecap="round" stroke-linejoin="round"/>
<path d="M64.7 358.88L69.29 381.36" stroke="#263238" stroke-linecap="round" stroke-linejoin="round"/>
<path d="M70.3899 358.88L74.9799 381.36" stroke="#263238" stroke-linecap="round" stroke-linejoin="round"/>
<path d="M76.0801 358.88L80.6701 381.36" stroke="#263238" stroke-linecap="round" stroke-linejoin="round"/>
<path d="M81.76 358.88L86.35 381.36" stroke="#263238" stroke-linecap="round" stroke-linejoin="round"/>
<path d="M87.45 358.88L92.04 381.36" stroke="#263238" stroke-linecap="round" stroke-linejoin="round"/>
<path d="M93.1299 358.88L97.7199 381.36" stroke="#263238" stroke-linecap="round" stroke-linejoin="round"/>
<path d="M98.8201 358.88L103.41 381.36" stroke="#263238" stroke-linecap="round" stroke-linejoin="round"/>
<path d="M43.3701 363.27H105.02" stroke="#263238" stroke-linecap="round" stroke-linejoin="round"/>
<path d="M44.29 367.79H105.94" stroke="#263238" stroke-linecap="round" stroke-linejoin="round"/>
<path d="M45.22 372.32H106.86" stroke="#263238" stroke-linecap="round" stroke-linejoin="round"/>
<path d="M46.1399 376.84H107.79" stroke="#263238" stroke-linecap="round" stroke-linejoin="round"/>
<path d="M69.3201 354.87H41.7901L41.3501 352.67H68.8701L69.3201 354.87Z" fill="#263238"/>
<path d="M445 278H355.34C351.121 278.1 347.077 279.705 343.937 282.525C340.798 285.346 338.77 289.196 338.22 293.38L327.22 390.61H432.22L445 278Z" fill="white" stroke="#263238" stroke-linecap="round" stroke-linejoin="round"/>
<path d="M445.47 278C441.965 278.083 438.605 279.416 435.997 281.76C433.389 284.104 431.705 287.303 431.25 290.78L419.94 390.61H445.48L456.8 290.78C457.033 289.171 456.913 287.53 456.447 285.972C455.981 284.414 455.18 282.977 454.102 281.76C453.023 280.543 451.692 279.577 450.201 278.927C448.71 278.278 447.096 277.961 445.47 278Z" fill="#263238" stroke="#263238" stroke-linecap="round" stroke-linejoin="round"/>
<path d="M326.29 248.79C319.989 253.289 313.178 257.028 306 259.93C293.27 265.23 288.15 266.83 288.15 266.83L291.68 388.63H384.1C384.1 388.63 372.25 312.26 372.25 286.63C372.25 261 373.31 256 373.31 256L342.91 248.22L326.29 248.79Z" fill="#0077FF" stroke="#263238" stroke-linecap="round" stroke-linejoin="round"/>
<path d="M316.21 253.92C313.329 274.607 311.619 295.44 311.09 316.32C310.56 347.61 316.57 389.32 316.57 389.32H248.86C257.28 373.392 263.302 356.308 266.73 338.62C271.73 313.29 275.73 270.35 276.79 269.82C277.85 269.29 313.74 256 316.21 253.92Z" fill="#263238" stroke="#263238" stroke-linecap="round" stroke-linejoin="round"/>
<path d="M285.46 389.33C285.46 389.33 278.56 342.66 278.91 331.7C279.26 320.74 281 283.62 281 283.62" stroke="#616161" stroke-linecap="round" stroke-linejoin="round"/>
<path d="M354.22 250.74C354.22 250.74 345.56 290.51 344.85 323.22C344.14 355.93 341.85 389.51 341.85 389.51H396.6C396.6 389.51 397.31 359.63 396.6 349.38C395.89 339.13 395.89 341.25 395.89 341.25L417.11 346.73C417.11 346.73 403.49 281.14 401.02 273.9C398.55 266.66 399.78 264.35 398.19 263.11C396.6 261.87 354.22 250.74 354.22 250.74Z" fill="#263238" stroke="#263238" stroke-linecap="round" stroke-linejoin="round"/>
<path d="M255.33 362.29C256.757 364.478 258.435 366.492 260.33 368.29C262.76 370.37 267.97 369.29 270.74 372.13C273.51 374.97 270.48 383.64 266.98 386.67C260.98 391.84 264.16 376.15 264.16 376.15C262.044 377.6 259.707 378.698 257.24 379.4C253.84 380.18 245.09 377.52 242.16 377.4C239.23 377.28 235.16 376.72 233.6 373.46C232.04 370.2 241.72 366.27 246.02 364.71C249.057 363.667 252.17 362.858 255.33 362.29Z" fill="white" stroke="#263238" stroke-linecap="round" stroke-linejoin="round"/>
<path d="M236.81 366.89C235.885 366.643 234.909 366.673 234.001 366.975C233.093 367.277 232.293 367.839 231.7 368.59C229.7 371.22 225.7 383.1 226.87 385.39C228.04 387.68 231.07 384.47 232.51 380.7C233.124 378.883 233.943 377.142 234.95 375.51C234.95 375.51 236.53 376.28 237.64 374.22C238.75 372.16 239.87 369.07 236.81 366.89Z" fill="white" stroke="#263238" stroke-linecap="round" stroke-linejoin="round"/>
<path d="M242.47 364.82C241.501 364.262 240.369 364.057 239.267 364.24C238.164 364.422 237.158 364.98 236.42 365.82C233.61 368.82 235.54 381.43 237.03 385.29C238.52 389.15 241.34 388.67 241.76 386.29C242.18 383.91 242.66 372.04 242.81 369.29C242.934 367.791 242.819 366.283 242.47 364.82Z" fill="white" stroke="#263238" stroke-linecap="round" stroke-linejoin="round"/>
<path d="M248.47 363.46C247.514 362.858 246.37 362.627 245.255 362.812C244.14 362.996 243.132 363.582 242.42 364.46C239.63 367.63 241.69 380.97 243.22 385.07C244.75 389.17 247.57 388.69 247.97 386.14C248.37 383.59 248.73 371.06 248.85 368.14C248.952 366.57 248.824 364.993 248.47 363.46Z" fill="white" stroke="#263238" stroke-linecap="round" stroke-linejoin="round"/>
<path d="M257.25 365.08C257.25 365.08 254.92 359.87 251.12 360.73C247.32 361.59 246.12 366.73 246.82 374.53C247.52 382.33 248.98 388.53 251.1 388.75C253.22 388.97 255.53 384.26 255.95 378.17C256.37 372.08 257 368.44 257 368.44" fill="white"/>
<path d="M257.25 365.08C257.25 365.08 254.92 359.87 251.12 360.73C247.32 361.59 246.12 366.73 246.82 374.53C247.52 382.33 248.98 388.53 251.1 388.75C253.22 388.97 255.53 384.26 255.95 378.17C256.37 372.08 257 368.44 257 368.44" stroke="#263238" stroke-linecap="round" stroke-linejoin="round"/>
<path d="M306.11 310.57H282.54V346.75H306.11V310.57Z" fill="#0077FF" stroke="#263238" stroke-linecap="round" stroke-linejoin="round"/>
<path d="M295.97 300.03H291.63V316.77H295.97V300.03Z" fill="white" stroke="#263238" stroke-linecap="round" stroke-linejoin="round"/>
<path d="M298.45 320.7H288.32V333.93H298.45V320.7Z" fill="white" stroke="#263238" stroke-linecap="round" stroke-linejoin="round"/>
<path d="M286.67 337.86H300.52" stroke="#263238" stroke-linecap="round" stroke-linejoin="round"/>
<path d="M284.6 340.75H302.38" stroke="#263238" stroke-linecap="round" stroke-linejoin="round"/>
<path d="M323.82 243.67C323.82 243.67 316.21 248.79 314.82 252.86C313.43 256.93 307.57 274.25 305.27 280.79C302.97 287.33 289.89 292.99 291.66 294.23C293.43 295.47 310.58 297.05 310.58 297.05C310.58 297.05 314.47 312.26 315.35 316.15C316.23 320.04 321.54 331.88 321.54 331.88C321.54 331.88 337.27 312.96 339.75 307.88C341.454 304.445 343.402 301.136 345.58 297.98C345.58 297.98 352.3 299.57 356.58 300.28C360.86 300.99 372.49 302.04 371.96 300.1C371.43 298.16 365.6 289.67 363.3 281.36C361 273.05 362.41 254.84 359.59 247.77C356.77 240.7 350.59 239.64 348.45 239.11C346.31 238.58 327 240.66 323.82 243.67Z" fill="#0077FF" stroke="#263238" stroke-linecap="round" stroke-linejoin="round"/>
<path d="M321.34 238.19C321.34 238.19 323.64 251.09 323.34 261.52C323.04 271.95 319.27 295.29 319.45 307.31C319.629 315.294 320.277 323.261 321.39 331.17C321.39 331.17 338.72 307.31 345.08 287.86C351.44 268.41 353.21 251.8 353.21 250.56C353.21 249.32 353.56 220.51 353.56 220.51C353.56 220.51 335.13 239.78 321.34 238.19Z" fill="white" stroke="#263238" stroke-linecap="round" stroke-linejoin="round"/>
<path d="M353.37 232.74C353.44 226.26 353.51 220.51 353.51 220.51C353.51 220.51 335.13 239.78 321.34 238.19C321.34 238.19 321.99 241.82 322.54 246.79C324.344 248.026 326.346 248.942 328.46 249.5C334.84 250.78 341.99 247.21 346.84 241.08C348.63 238.82 351 235.74 353.37 232.74Z" fill="#263238" stroke="#263238" stroke-linecap="round" stroke-linejoin="round"/>
<path d="M365.98 174.19C375.695 174.19 383.57 166.395 383.57 156.78C383.57 147.165 375.695 139.37 365.98 139.37C356.265 139.37 348.39 147.165 348.39 156.78C348.39 166.395 356.265 174.19 365.98 174.19Z" fill="#263238" stroke="#263238" stroke-linecap="round" stroke-linejoin="round"/>
<path d="M294.75 187.2C294.75 187.2 285.31 184.64 283.75 179.54C282.19 174.44 287.84 156.54 306.22 147.37C324.6 138.2 341.46 143.28 348.86 145.32C356.26 147.36 361.63 151.2 366.48 164.73C371.33 178.26 371.58 188.73 370.05 193.83C369.141 196.879 368.032 199.866 366.73 202.77C366.73 202.77 357.29 203.77 354.73 199.96C352.17 196.15 353.2 176.96 342.22 172.39C331.24 167.82 310.31 170.39 305.22 174.94C300.13 179.49 294.75 187.2 294.75 187.2Z" fill="#263238" stroke="#263238" stroke-linecap="round" stroke-linejoin="round"/>
<path d="M293.22 183.88C293.22 183.88 295.52 198.43 295.52 206.34C295.52 214.25 301.9 225.24 305.22 228.34C308.54 231.44 319.52 241.87 325.9 243.15C332.28 244.43 339.43 240.85 344.28 234.72C349.13 228.59 358.58 216.34 358.58 216.34C360.687 216.575 362.81 216.065 364.581 214.9C366.353 213.735 367.661 211.988 368.28 209.96C370.84 202.55 369.56 194.13 365.22 193.11C360.88 192.09 357.82 197.19 357.82 197.19C357.82 197.19 354.24 183.41 349.65 176.51L343.01 166.51L351.48 155.92C351.573 155.805 351.641 155.672 351.68 155.53C351.719 155.387 351.729 155.239 351.708 155.092C351.687 154.946 351.637 154.806 351.56 154.68C351.483 154.554 351.381 154.445 351.26 154.36C351.032 154.197 350.751 154.128 350.473 154.167C350.196 154.206 349.944 154.35 349.77 154.57L341.48 165.24C341.48 165.24 325.14 162.43 310.84 169.58C296.54 176.73 293.22 183.88 293.22 183.88Z" fill="white" stroke="#263238" stroke-linecap="round" stroke-linejoin="round"/>
<path d="M345.68 198.25L343.38 201.32" stroke="#263238" stroke-linecap="round" stroke-linejoin="round"/>
<path d="M314.16 215.79C314.16 215.79 314.67 217.32 317.99 218.09C319.539 218.45 321.16 218.353 322.654 217.81C324.149 217.266 325.454 216.301 326.41 215.03" stroke="#263238" stroke-linecap="round" stroke-linejoin="round"/>
<path d="M318 224C321.148 224.71 324.427 224.589 327.514 223.65C330.601 222.71 333.391 220.984 335.61 218.64C335.61 218.64 333.32 228.34 328.72 230.13C324.12 231.92 323.87 227.06 323.87 227.06L318 224Z" stroke="#263238" stroke-linecap="round" stroke-linejoin="round"/>
<path d="M327.18 204.56C329.296 202.568 331.87 201.13 334.676 200.373C337.481 199.616 340.43 199.563 343.26 200.22" stroke="#263238" stroke-width="2" stroke-linecap="round" stroke-linejoin="round"/>
<path d="M310.58 204.05C310.58 204.05 304.97 198.43 299.09 201.49" stroke="#263238" stroke-width="2" stroke-linecap="round" stroke-linejoin="round"/>
<path d="M297.31 200.22L300.11 203.03" stroke="#263238" stroke-linecap="round" stroke-linejoin="round"/>
<path d="M325.39 190.77C325.39 190.77 333 182 344 190.26" stroke="#263238" stroke-linecap="round" stroke-linejoin="round"/>
<path d="M310.07 190.51C310.07 190.51 303.18 185.15 296.28 191.28" stroke="#263238" stroke-linecap="round" stroke-linejoin="round"/>
<path d="M333.19 203.19C333.2 203.439 333.135 203.686 333.002 203.897C332.87 204.108 332.677 204.275 332.448 204.375C332.22 204.475 331.966 204.504 331.721 204.458C331.476 204.411 331.251 204.292 331.074 204.116C330.898 203.939 330.779 203.714 330.733 203.469C330.686 203.224 330.715 202.97 330.815 202.742C330.915 202.513 331.082 202.32 331.293 202.188C331.505 202.056 331.751 201.99 332 202C332.312 202.012 332.607 202.142 332.828 202.362C333.049 202.583 333.178 202.878 333.19 203.19Z" fill="#263238"/>
<path d="M304 202.12C304.002 202.366 303.931 202.606 303.796 202.812C303.661 203.017 303.468 203.177 303.242 203.273C303.015 203.368 302.766 203.394 302.524 203.347C302.283 203.301 302.061 203.183 301.887 203.01C301.713 202.837 301.593 202.616 301.545 202.376C301.496 202.135 301.52 201.885 301.614 201.658C301.707 201.431 301.866 201.236 302.07 201.1C302.274 200.963 302.515 200.89 302.76 200.89C303.087 200.89 303.401 201.019 303.634 201.25C303.866 201.48 303.998 201.793 304 202.12Z" fill="#263238"/>
<path d="M364.33 177.22C364.33 177.22 365.21 188.71 363.09 197.37L366.45 198.43C366.45 198.43 369.1 185.17 367.86 177.75L364.33 177.22Z" fill="#0077FF" stroke="#263238" stroke-linecap="round" stroke-linejoin="round"/>
<path d="M341.49 143.61C345.187 145.455 348.481 148.014 351.183 151.139C353.885 154.265 355.94 157.895 357.23 161.82C361.29 174.9 360.76 178.97 363.23 180.38C365.7 181.79 370.48 182.68 370.65 179.5C370.82 176.32 369.72 162.13 362.65 153.33C357.35 146.63 345.91 143.79 341.49 143.61Z" fill="#0077FF" stroke="#263238" stroke-linecap="round" stroke-linejoin="round"/>
<path d="M365.73 194.84C360.64 193.28 355.05 196.84 353.23 202.75C351.55 208.22 353.69 213.8 358.03 215.86C354.844 223.957 350.105 231.352 344.08 237.63C342.907 237.485 341.723 237.785 340.76 238.47C338.94 239.7 338.14 241.71 338.99 242.97C339.84 244.23 341.99 244.25 343.82 243.03C345.65 241.81 346.3 240.03 345.72 238.81C351.88 232.38 356.713 224.799 359.94 216.5C364.8 217.5 369.94 214.02 371.65 208.39C373.47 202.47 370.82 196.4 365.73 194.84Z" fill="#0077FF" stroke="#263238" stroke-linecap="round" stroke-linejoin="round"/>
<path d="M370.05 206.4C369.19 210.18 365.78 212.64 362.43 211.88C359.08 211.12 357.06 207.43 357.92 203.65C358.78 199.87 362.19 197.41 365.54 198.16C368.89 198.91 370.91 202.61 370.05 206.4Z" fill="#0077FF" stroke="#263238" stroke-linecap="round" stroke-linejoin="round"/>
<path d="M369.07 268.77C369.07 268.77 364.12 256.4 363.07 254.1C362.02 251.8 370.67 238.19 372.07 236.24C373.47 234.29 376.13 230.24 376.13 229.35C376.13 228.46 366.06 218.56 363.93 216.97C361.8 215.38 358.28 218.97 358.28 218.97C358.28 218.97 349.09 231.17 349.09 232.58C349.09 233.99 353.5 238.41 353.5 238.41C353.5 238.41 346.61 248.31 347.5 252.2C348.39 256.09 351.92 259.45 351.92 259.45L356.87 278.54L369.07 268.77Z" fill="white" stroke="#263238" stroke-linecap="round" stroke-linejoin="round"/>
<path d="M353.51 238.36C353.51 238.36 359.51 233.59 358.99 232.18C358.784 231.761 358.453 231.417 358.043 231.195C357.632 230.973 357.163 230.884 356.7 230.94" stroke="#263238" stroke-linecap="round" stroke-linejoin="round"/>
<path d="M357.76 220.51C358.29 220.51 373.84 230.76 373.49 232.51C373.181 233.802 372.707 235.049 372.08 236.22" stroke="#263238" stroke-linecap="round" stroke-linejoin="round"/>
<path d="M359.53 218.92C359.53 218.92 374.2 228.11 374.53 229.7C374.596 230.222 374.534 230.753 374.349 231.246C374.164 231.739 373.863 232.179 373.47 232.53" stroke="#263238" stroke-linecap="round" stroke-linejoin="round"/>
<path d="M361.12 217.33C361.12 217.33 376.5 227.76 376.12 229.33C375.699 230.617 375.041 231.814 374.18 232.86" stroke="#263238" stroke-linecap="round" stroke-linejoin="round"/>
<path d="M371.19 267.36L347.5 281C347.5 281 378.26 354.18 383.92 364.08C389.58 373.98 404.78 376.28 412.74 373.63C420.7 370.98 424.58 355.07 421.93 348.35C419.28 341.63 400.18 312.26 391 297.58C381.82 282.9 371.19 267.36 371.19 267.36Z" fill="#263238" stroke="#263238" stroke-linecap="round" stroke-linejoin="round"/>
<path d="M358.67 306C358.67 306 384.67 356 391.33 366" stroke="#616161" stroke-linecap="round" stroke-linejoin="round"/>
<path d="M373.33 273.29L410 329.29" stroke="#616161" stroke-linecap="round" stroke-linejoin="round"/>
<path d="M269.35 200.86V168.67C269.35 167.429 268.857 166.238 267.979 165.361C267.102 164.483 265.911 163.99 264.67 163.99H186.16C184.919 163.99 183.728 164.483 182.851 165.361C181.973 166.238 181.48 167.429 181.48 168.67V200.86C181.48 202.101 181.973 203.292 182.851 204.169C183.728 205.047 184.919 205.54 186.16 205.54H253.58L268.93 220.31L265.86 205.37C266.857 205.108 267.74 204.524 268.371 203.708C269.002 202.892 269.346 201.891 269.35 200.86Z" fill="white" stroke="#263238" stroke-linecap="round" stroke-linejoin="round"/>
<path d="M209.91 187.64C211.848 187.64 213.42 186.069 213.42 184.13C213.42 182.191 211.848 180.62 209.91 180.62C207.971 180.62 206.4 182.191 206.4 184.13C206.4 186.069 207.971 187.64 209.91 187.64Z" fill="#263238"/>
<path d="M225.41 187.64C227.348 187.64 228.92 186.069 228.92 184.13C228.92 182.191 227.348 180.62 225.41 180.62C223.471 180.62 221.9 182.191 221.9 184.13C221.9 186.069 223.471 187.64 225.41 187.64Z" fill="#263238"/>
<path d="M240.92 187.64C242.858 187.64 244.43 186.069 244.43 184.13C244.43 182.191 242.858 180.62 240.92 180.62C238.981 180.62 237.41 182.191 237.41 184.13C237.41 186.069 238.981 187.64 240.92 187.64Z" fill="#263238"/>
<path d="M194.23 200.12V192.92L186.66 191.24C186.248 189.778 185.667 188.368 184.93 187.04L189.08 180.5L184 175.41L177.46 179.57C176.138 178.826 174.731 178.245 173.27 177.84L171.58 170.27H164.38L162.7 177.84C161.235 178.243 159.824 178.824 158.5 179.57L152 175.41L146.91 180.5L151 187C150.254 188.324 149.673 189.735 149.27 191.2L141.7 192.88V200.08L149.27 201.77C149.672 203.245 150.253 204.666 151 206L146.84 212.54L151.93 217.63L158.47 213.47C159.796 214.215 161.206 214.799 162.67 215.21L164.35 222.77H171.55L173.24 215.21C174.7 214.797 176.107 214.213 177.43 213.47L183.97 217.63L189.06 212.54L184.93 206C185.665 204.674 186.246 203.268 186.66 201.81L194.23 200.12ZM168 205.82C166.161 205.82 164.363 205.275 162.833 204.253C161.304 203.231 160.112 201.778 159.408 200.079C158.704 198.38 158.52 196.51 158.879 194.706C159.237 192.902 160.123 191.245 161.424 189.944C162.724 188.643 164.382 187.758 166.186 187.399C167.99 187.04 169.86 187.224 171.559 187.928C173.258 188.632 174.711 189.824 175.733 191.353C176.755 192.883 177.3 194.681 177.3 196.52C177.3 197.741 177.059 198.951 176.592 200.079C176.125 201.207 175.44 202.233 174.576 203.096C173.712 203.96 172.687 204.645 171.559 205.112C170.431 205.579 169.221 205.82 168 205.82Z" fill="#263238" stroke="#263238" stroke-linecap="round" stroke-linejoin="round"/>
<path d="M130.77 389.24H296.17V382.57H130.77V389.24Z" fill="white" stroke="#263238" stroke-linecap="round" stroke-linejoin="round"/>
<path d="M105.37 389.24H249.53V382.57H105.37V389.24Z" fill="white" stroke="#263238" stroke-linecap="round" stroke-linejoin="round"/>
<path d="M102.58 370.7H240.5L225.63 265.41H87.71L102.58 370.7Z" fill="white" stroke="#263238" stroke-linecap="round" stroke-linejoin="round"/>
<path d="M96.87 370.7H234.79L219.92 265.41H82L96.87 370.7Z" fill="#263238" stroke="#263238" stroke-linecap="round" stroke-linejoin="round"/>
<path d="M139.13 321.76L125.29 389.24H160.88L174.72 321.76H139.13ZM163.27 341.76C163.212 342.043 163.058 342.298 162.834 342.48C162.61 342.662 162.329 342.761 162.04 342.76L141.88 342.56C141.691 342.558 141.505 342.513 141.336 342.429C141.167 342.345 141.019 342.224 140.903 342.075C140.787 341.927 140.706 341.754 140.665 341.569C140.625 341.385 140.627 341.194 140.67 341.01L142.49 333.44C142.548 333.157 142.702 332.902 142.926 332.72C143.151 332.538 143.431 332.439 143.72 332.44L163.89 332.63C164.078 332.634 164.263 332.68 164.43 332.764C164.598 332.849 164.745 332.97 164.86 333.118C164.975 333.267 165.056 333.439 165.095 333.623C165.135 333.807 165.133 333.997 165.09 334.18L163.27 341.76Z" fill="white" stroke="#263238" stroke-linecap="round" stroke-linejoin="round"/>
<path d="M1.25 394.08L466.75 394.08V389.24L1.25 389.24V394.08Z" fill="#263238" stroke="#263238" stroke-linecap="round" stroke-linejoin="round"/>
<path d="M334.86 69.53L331.92 61H302.39L305.06 111H373.72V69.53H334.86Z" stroke="#263238" stroke-linecap="round" stroke-linejoin="round"/>
<path d="M373.72 111L379.58 65.1899H333.08" stroke="#263238" stroke-linecap="round" stroke-linejoin="round"/>
<path d="M175.08 94.3038C179.438 75.7265 167.91 57.1343 149.333 52.7771C130.755 48.4198 112.163 59.9474 107.806 78.5247C103.449 97.102 114.976 115.694 133.554 120.051C152.131 124.409 170.723 112.881 175.08 94.3038Z" stroke="#263238" stroke-linecap="round" stroke-linejoin="round"/>
<path d="M168.531 92.9084C172.108 77.9545 162.884 62.9327 147.93 59.3564C132.977 55.7801 117.955 65.0035 114.379 79.9574C110.802 94.9113 120.026 109.933 134.98 113.509C149.933 117.086 164.955 107.862 168.531 92.9084Z" stroke="#263238" stroke-linecap="round" stroke-linejoin="round"/>
<path d="M145.14 86.42C145.14 87.1498 144.924 87.8632 144.518 88.47C144.113 89.0768 143.536 89.5498 142.862 89.8291C142.188 90.1084 141.446 90.1814 140.73 90.0391C140.014 89.8967 139.357 89.5453 138.841 89.0292C138.325 88.5131 137.973 87.8557 137.831 87.1399C137.689 86.4241 137.762 85.6821 138.041 85.0079C138.32 84.3336 138.793 83.7573 139.4 83.3519C140.007 82.9464 140.72 82.73 141.45 82.73C142.429 82.73 143.367 83.1187 144.059 83.8108C144.751 84.5028 145.14 85.4413 145.14 86.42Z" stroke="#263238" stroke-linecap="round" stroke-linejoin="round"/>
<path d="M141.34 60.67V67.56" stroke="#263238" stroke-linecap="round" stroke-linejoin="round"/>
<path d="M141.34 105.42V112.3" stroke="#263238" stroke-linecap="round" stroke-linejoin="round"/>
<path d="M123.09 68.23L127.95 73.1" stroke="#263238" stroke-linecap="round" stroke-linejoin="round"/>
<path d="M154.73 99.87L159.59 104.74" stroke="#263238" stroke-linecap="round" stroke-linejoin="round"/>
<path d="M115.53 86.49H122.41" stroke="#263238" stroke-linecap="round" stroke-linejoin="round"/>
<path d="M160.27 86.49H167.15" stroke="#263238" stroke-linecap="round" stroke-linejoin="round"/>
<path d="M123.09 104.74L127.95 99.87" stroke="#263238" stroke-linecap="round" stroke-linejoin="round"/>
<path d="M154.73 73.1L159.59 68.23" stroke="#263238" stroke-linecap="round" stroke-linejoin="round"/>
<path d="M137.76 86.42H127.57" stroke="#263238" stroke-linecap="round" stroke-linejoin="round"/>
<path d="M141.45 82.73V69.28" stroke="#263238" stroke-linecap="round" stroke-linejoin="round"/>
<path d="M277.08 61H197.75V111.67H277.08V61Z" stroke="#263238" stroke-linecap="round" stroke-linejoin="round"/>
<path d="M197.75 61L237.41 86.33L277.08 61" stroke="#263238" stroke-linecap="round" stroke-linejoin="round"/>
<path d="M197.75 111.67L227.75 84.33" stroke="#263238" stroke-linecap="round" stroke-linejoin="round"/>
<path d="M276.7 111.67L246.7 84.33" stroke="#263238" stroke-linecap="round" stroke-linejoin="round"/>
</svg>
